<?xml version="1.0" standalone="no"?><!DOCTYPE svg PUBLIC "-//W3C//DTD SVG 1.1//EN" "http://www.w3.org/Graphics/SVG/1.1/DTD/svg11.dtd"><svg t="1740729477422" class="icon" viewBox="0 0 1024 1024" version="1.1" xmlns="http://www.w3.org/2000/svg" p-id="9541" xmlns:xlink="http://www.w3.org/1999/xlink" width="32" height="32"><path d="M522.67749 393.751656c11.900846 0 21.882201 7.677965 24.185591 17.915252l0.511865 4.542796v16.891524h286.644039v-16.891524c0-10.877118 8.445762-19.898727 19.642795-22.010167l4.990677-0.447881h114.785582c11.964829 0 21.882201 7.677965 24.185591 17.915252l0.511864 4.542796v73.13262c0 10.877118-8.445762 19.96271-19.706778 22.074151L973.438039 511.864356H858.652457a24.249574 24.249574 0 0 1-24.185591-17.915253l-0.511864-4.606779v-16.635591h-122.847446l0.447882 215.814809h122.847445v-17.65932c0-5.950423 2.559322-11.708897 7.166101-15.931779a25.529235 25.529235 0 0 1 12.60466-6.142372l4.862711-0.447881h114.401684c6.590254 0 12.796609 2.367373 17.467371 6.590253 3.455084 3.199152 5.758474 7.230084 6.782203 11.516948l0.447881 4.478814v74.668212c0 10.877118-8.445762 19.96271-19.706778 22.010168l-4.990677 0.511864h-114.401684a24.249574 24.249574 0 0 1-24.18559-17.979235l-0.511865-4.542797v-17.65932h-122.847445l0.191949 205.769471c0 4.990677 3.519067 9.213558 8.445762 10.685169l3.838982 0.63983h110.050837v-2.623305c0-3.455084 0.127966-8.18983 0.319915-14.332202 0-5.950423 2.559322-11.644914 7.230084-15.867795a25.529235 25.529235 0 0 1 12.60466-6.142372l4.862711-0.447881h114.401684c6.590254 0 12.796609 2.367373 17.467371 6.590253 3.455084 3.199152 5.758474 7.166101 6.782203 11.516948l0.447881 4.350847-0.383898 73.13262c0 10.877118-8.445762 19.96271-19.706778 22.074151l-4.990677 0.447881H858.652457a24.249574 24.249574 0 0 1-24.185591-17.915253l-0.511864-4.606779v-16.82754h-138.971173c-11.900846 0-21.946184-12.028812-24.313557-23.353812l-0.447881-4.798728V472.706733h-122.847445v16.82754c0 5.950423-2.559322 11.644914-7.230084 15.867795a25.529235 25.529235 0 0 1-12.60466 6.206356l-4.862712 0.383898H408.595722a24.249574 24.249574 0 0 1-24.185591-17.915252L383.898267 489.47029V416.209704c0-5.950423 2.559322-11.644914 7.230084-15.867795a25.529235 25.529235 0 0 1 12.60466-6.142372l4.862711-0.447881h114.081768z m434.124957 551.213928h-81.898297v39.413556h81.898297v-39.413556zM895.762623 0c70.701264 0 127.966089 58.736435 127.966089 131.229224v196.875828H63.983044v459.39826c0 33.655081 24.697455 61.423723 56.497029 65.134739l7.486016 0.447881h346.532169c18.235168 0 33.079234 14.652117 33.335166 32.823302a32.247454 32.247454 0 0 1-31.73559 32.823302H127.966089c-70.701264 0-127.966089-58.736435-127.966089-131.229224V131.165241C0 58.736435 57.264825 0 127.966089 0h767.796534z m61.423723 688.521542h-81.898297v39.413555h81.898297v-39.413555zM895.762623 65.646604H127.966089a64.622875 64.622875 0 0 0-63.535163 57.968638L63.983044 131.293207v131.165242h895.762623v-131.165242c0-36.278386-28.664404-65.646604-63.983044-65.646603zM191.949133 131.165241c17.65932 0 31.991522 14.7161 31.991523 32.823302a32.439404 32.439404 0 0 1-31.991523 32.823302H127.966089c-17.65932 0-31.991522-14.7161-31.991522-32.823302 0-18.107202 14.332202-32.823302 31.991522-32.823302h63.983044z m143.961851 0c17.65932 0 31.991522 14.7161 31.991522 32.823302a32.439404 32.439404 0 0 1-31.991522 32.823302h-63.983045c-17.65932 0-31.991522-14.7161-31.991522-32.823302 0-18.107202 14.332202-32.823302 31.991522-32.823302h63.983045z m143.96185 0c17.65932 0 31.991522 14.7161 31.991522 32.823302a32.439404 32.439404 0 0 1-31.991522 32.823302h-63.983045c-17.65932 0-31.991522-14.7161-31.991522-32.823302 0-18.107202 14.332202-32.823302 31.991522-32.823302h63.983045z" fill="#333333" p-id="9542"></path></svg>